<svg width="678" height="148" viewBox="0 0 678 148" fill="none" xmlns="http://www.w3.org/2000/svg">
<path d="M21.631 0.957996C25.4943 0.957996 28.8697 1.83233 31.757 3.581C34.685 5.32966 36.942 7.851 38.528 11.145C40.1547 14.3983 40.968 18.3633 40.968 23.04C40.968 27.5947 40.1343 31.58 38.467 34.996C36.8403 38.412 34.563 41.0757 31.635 42.987C28.707 44.8983 25.352 45.854 21.57 45.854C17.7067 45.854 14.311 44.9797 11.383 43.231C8.49567 41.4823 6.23867 38.961 4.612 35.667C3.026 32.373 2.233 28.408 2.233 23.772C2.233 19.2173 3.06667 15.232 4.734 11.816C6.40133 8.4 8.67867 5.73633 11.566 3.825C14.494 1.91366 17.849 0.957996 21.631 0.957996ZM21.387 2.056C18.7437 2.056 16.446 2.971 14.494 4.801C12.542 6.631 11.017 9.15233 9.919 12.365C8.86167 15.5777 8.333 19.2987 8.333 23.528C8.333 27.8387 8.92267 31.6003 10.102 34.813C11.322 37.985 12.9487 40.4453 14.982 42.194C17.056 43.902 19.3333 44.756 21.814 44.756C24.4573 44.756 26.755 43.841 28.707 42.011C30.659 40.181 32.1637 37.6597 33.221 34.447C34.319 31.1937 34.868 27.4727 34.868 23.284C34.868 18.9327 34.258 15.171 33.038 11.999C31.8587 8.827 30.2523 6.387 28.219 4.679C26.1857 2.93033 23.9083 2.056 21.387 2.056ZM78.4959 13.646C78.3332 15.0693 78.2112 16.4317 78.1299 17.733C78.0892 19.0343 78.0689 20.0307 78.0689 20.722C78.0689 21.454 78.0892 22.1657 78.1299 22.857C78.1705 23.5077 78.2112 24.0567 78.2519 24.504H76.8489C76.6455 21.698 76.2185 19.6037 75.5679 18.221C74.9172 16.8383 74.0225 15.9437 72.8839 15.537C71.7452 15.0897 70.3422 14.866 68.6749 14.866H66.2959V38.717C66.2959 40.7097 66.8652 42.0517 68.0039 42.743C69.1832 43.3937 70.7692 43.719 72.7619 43.719V45C71.8265 44.9593 70.5252 44.9187 68.8579 44.878C67.2312 44.7967 65.4622 44.756 63.5509 44.756C61.6802 44.756 59.9112 44.7967 58.2439 44.878C56.5765 44.9187 55.2752 44.9593 54.3399 45V43.719C56.3732 43.719 57.9592 43.3937 59.0979 42.743C60.2365 42.0517 60.8059 40.7097 60.8059 38.717V14.866H57.8169C56.1495 14.866 54.7872 15.0897 53.7299 15.537C52.7132 15.9843 51.9202 16.8993 51.3509 18.282C50.8222 19.6647 50.4562 21.759 50.2529 24.565H48.8499C48.9312 24.1177 48.9719 23.5687 48.9719 22.918C49.0125 22.2267 49.0329 21.515 49.0329 20.783C49.0329 20.0917 48.9922 19.0953 48.9109 17.794C48.8702 16.4927 48.7685 15.1303 48.6059 13.707H54.4619C55.8445 13.707 57.3085 13.7273 58.8539 13.768C60.4399 13.8087 61.9852 13.829 63.4899 13.829C65.0352 13.829 66.6009 13.8087 68.1869 13.768C69.7729 13.6867 71.2572 13.646 72.6399 13.646H78.4959ZM111.63 13.646V14.927C109.962 14.927 108.763 15.232 108.031 15.842C107.339 16.452 106.994 17.611 106.994 19.319V39.327C106.994 41.035 107.319 42.194 107.97 42.804C108.661 43.414 110.105 43.719 112.301 43.719C112.138 45.1423 112.016 46.5047 111.935 47.806C111.894 49.1073 111.874 50.1037 111.874 50.795C111.874 51.527 111.894 52.2183 111.935 52.869C111.975 53.5603 112.016 54.1297 112.057 54.577H110.654C110.45 52.1777 110.166 50.246 109.8 48.782C109.474 47.3587 108.885 46.3217 108.031 45.671C107.217 45.061 105.977 44.756 104.31 44.756C103.334 44.756 102.419 44.7763 101.565 44.817C100.711 44.817 99.7755 44.8373 98.7588 44.878C97.7828 44.9187 96.6035 44.9593 95.2208 45C93.8382 45 92.1302 45 90.0968 45C88.4295 45 87.1688 45.2847 86.3148 45.854C85.5015 46.464 84.9118 47.4603 84.5458 48.843C84.2205 50.2663 83.9562 52.1777 83.7528 54.577H82.3498C82.4312 54.1297 82.4718 53.5603 82.4718 52.869C82.5125 52.2183 82.5328 51.527 82.5328 50.795C82.5328 50.1037 82.4922 49.1073 82.4108 47.806C82.3702 46.5047 82.2685 45.1423 82.1058 43.719H97.4778C98.9418 43.719 99.9788 43.414 100.589 42.804C101.199 42.194 101.504 41.035 101.504 39.327V19.319C101.504 17.611 101.199 16.452 100.589 15.842C99.9788 15.232 98.9418 14.927 97.4778 14.927H96.9288C95.4648 14.927 94.4685 15.232 93.9398 15.842C93.4112 16.452 93.0655 17.611 92.9028 19.319C92.7402 21.515 92.5165 23.833 92.2318 26.273C91.9878 28.6723 91.6422 31.0107 91.1948 33.288C90.7475 35.5653 90.1375 37.619 89.3648 39.449C88.9175 40.547 88.3278 41.6043 87.5958 42.621C86.8638 43.597 85.8472 44.207 84.5458 44.451L83.2648 43.719C84.5662 43.719 85.6438 43.2513 86.4978 42.316C87.3518 41.34 87.9822 40.2827 88.3888 39.144C89.0802 37.3547 89.6292 35.3823 90.0358 33.227C90.4832 31.0717 90.8492 28.8147 91.1338 26.456C91.4185 24.0973 91.6422 21.7183 91.8048 19.319C91.9268 17.611 91.5608 16.452 90.7068 15.842C89.8935 15.232 88.6532 14.927 86.9858 14.927V13.646C87.3112 13.6867 87.8195 13.7477 88.5108 13.829C89.2428 13.8697 90.1172 13.89 91.1338 13.89C92.1505 13.89 93.1875 13.8493 94.2448 13.768C95.3428 13.6867 96.4612 13.646 97.5998 13.646C98.7385 13.646 99.7755 13.6867 100.711 13.768C101.687 13.8493 102.866 13.89 104.249 13.89C105.672 13.89 107.075 13.8697 108.458 13.829C109.881 13.7477 110.938 13.6867 111.63 13.646ZM132.517 13.646V14.927C130.85 14.927 129.65 15.232 128.918 15.842C128.227 16.452 127.881 17.611 127.881 19.319V39.327C127.881 40.9537 128.064 42.0923 128.43 42.743C128.837 43.3937 129.528 43.719 130.504 43.719C132.7 43.719 134.367 43.353 135.506 42.621C136.685 41.889 137.499 40.913 137.946 39.693C138.393 38.473 138.617 37.1717 138.617 35.789C138.617 32.983 137.824 30.9497 136.238 29.689C134.693 28.3877 132.11 27.737 128.491 27.737C127.8 27.737 127.088 27.737 126.356 27.737C125.624 27.737 124.912 27.737 124.221 27.737L124.099 26.7C125.441 26.7 126.763 26.7 128.064 26.7C129.406 26.7 130.748 26.7 132.09 26.7C136.523 26.7 139.674 27.5337 141.545 29.201C143.416 30.8277 144.351 32.9017 144.351 35.423C144.351 36.9277 143.924 38.412 143.07 39.876C142.257 41.34 140.874 42.56 138.922 43.536C137.011 44.512 134.428 45 131.175 45C130.321 45 129.345 44.9593 128.247 44.878C127.149 44.7967 126.051 44.756 124.953 44.756C123.692 44.756 122.35 44.7967 120.927 44.878C119.504 44.9187 118.446 44.9593 117.755 45V43.719C119.422 43.719 120.602 43.414 121.293 42.804C122.025 42.194 122.391 41.035 122.391 39.327V19.319C122.391 17.611 122.086 16.452 121.476 15.842C120.866 15.232 119.829 14.927 118.365 14.927V13.646C119.016 13.6867 119.971 13.7477 121.232 13.829C122.533 13.8697 123.855 13.89 125.197 13.89C126.539 13.89 127.922 13.8697 129.345 13.829C130.768 13.7477 131.826 13.6867 132.517 13.646ZM160.089 13.646V14.927C158.625 14.927 157.588 15.232 156.978 15.842C156.368 16.452 156.063 17.611 156.063 19.319V39.327C156.063 41.035 156.409 42.194 157.1 42.804C157.832 43.414 159.032 43.719 160.699 43.719V45C160.008 44.9593 158.93 44.9187 157.466 44.878C156.002 44.7967 154.599 44.756 153.257 44.756C152.037 44.756 150.776 44.7967 149.475 44.878C148.174 44.9187 147.198 44.9593 146.547 45V43.719C148.011 43.719 149.048 43.414 149.658 42.804C150.268 42.194 150.573 41.035 150.573 39.327V19.319C150.573 17.611 150.268 16.452 149.658 15.842C149.048 15.232 148.011 14.927 146.547 14.927V13.646C147.198 13.6867 148.174 13.7477 149.475 13.829C150.776 13.8697 152.037 13.89 153.257 13.89C154.599 13.89 155.9 13.8697 157.161 13.829C158.462 13.7477 159.438 13.6867 160.089 13.646ZM177.707 13.585V14.866C176.934 14.866 176.283 15.049 175.755 15.415C175.226 15.781 175.165 16.2893 175.572 16.94L191.859 40.669C192.55 41.6857 193.16 42.4177 193.689 42.865C194.217 43.2717 194.868 43.5563 195.641 43.719V45C195.234 44.9593 194.604 44.9187 193.75 44.878C192.936 44.7967 192.123 44.756 191.31 44.756C190.049 44.756 188.687 44.7967 187.223 44.878C185.799 44.9187 184.762 44.9593 184.112 45V43.719C184.925 43.719 185.596 43.536 186.125 43.17C186.653 42.7633 186.694 42.255 186.247 41.645L169.96 17.916C169.146 16.7367 168.496 15.964 168.008 15.598C167.52 15.1913 166.91 14.9473 166.178 14.866V13.585C166.584 13.6257 167.215 13.6867 168.069 13.768C168.923 13.8087 169.736 13.829 170.509 13.829C171.81 13.829 173.172 13.8087 174.596 13.768C176.019 13.6867 177.056 13.6257 177.707 13.585ZM179.354 29.079C179.354 29.079 179.394 29.2213 179.476 29.506C179.557 29.75 179.638 30.0143 179.72 30.299C179.842 30.5837 179.903 30.726 179.903 30.726L174.84 37.314C173.782 38.6967 173.213 39.8557 173.132 40.791C173.091 41.7263 173.477 42.438 174.291 42.926C175.104 43.3733 176.222 43.658 177.646 43.78V45C176.954 44.9593 176.182 44.939 175.328 44.939C174.474 44.8983 173.64 44.878 172.827 44.878C172.054 44.8373 171.342 44.817 170.692 44.817C169.756 44.817 168.902 44.8373 168.13 44.878C167.398 44.878 166.706 44.9187 166.056 45V43.78C166.828 43.6987 167.621 43.353 168.435 42.743C169.289 42.0923 170.285 41.0147 171.424 39.51L179.354 29.079ZM194.421 13.585V14.805C193.648 14.8863 192.794 15.293 191.859 16.025C190.964 16.7163 190.029 17.733 189.053 19.075L182.038 28.774C182.038 28.774 181.997 28.652 181.916 28.408C181.834 28.1233 181.753 27.859 181.672 27.615C181.59 27.3303 181.55 27.188 181.55 27.188L186.308 20.539C187.202 19.2783 187.772 18.2413 188.016 17.428C188.26 16.6147 188.117 16.0047 187.589 15.598C187.101 15.1507 186.125 14.8863 184.661 14.805V13.585C185.718 13.6257 186.592 13.6663 187.284 13.707C188.016 13.7477 188.849 13.768 189.785 13.768C190.72 13.768 191.554 13.7477 192.286 13.707C193.058 13.6663 193.77 13.6257 194.421 13.585ZM233.435 13.646C236.444 13.646 238.803 13.951 240.511 14.561C242.26 15.171 243.5 16.0453 244.232 17.184C244.964 18.282 245.33 19.563 245.33 21.027C245.33 23.1417 244.212 24.992 241.975 26.578C239.779 28.164 236.444 28.957 231.971 28.957C231.971 28.957 231.869 28.9163 231.666 28.835C231.503 28.7537 231.32 28.6723 231.117 28.591C230.914 28.5097 230.812 28.469 230.812 28.469C233.252 28.4283 235.102 28.164 236.363 27.676C237.664 27.1473 238.539 26.3747 238.986 25.358C239.474 24.3413 239.718 23.0603 239.718 21.515C239.718 20.2543 239.535 19.136 239.169 18.16C238.844 17.1433 238.173 16.3503 237.156 15.781C236.18 15.2117 234.736 14.927 232.825 14.927C231.198 14.927 230.039 15.2523 229.348 15.903C228.697 16.513 228.372 17.6517 228.372 19.319V39.327C228.372 41.035 228.697 42.194 229.348 42.804C230.039 43.414 231.259 43.719 233.008 43.719C235.285 43.719 237.034 43.3733 238.254 42.682C239.515 41.9907 240.369 41.0757 240.816 39.937C241.304 38.7983 241.548 37.558 241.548 36.216C241.548 33.6133 240.816 31.8443 239.352 30.909C237.929 29.9737 236.099 29.506 233.862 29.506H224.59C224.59 29.506 224.59 29.3433 224.59 29.018C224.59 28.652 224.59 28.469 224.59 28.469H233.313L233.862 28.591C237.115 28.591 239.718 28.896 241.67 29.506C243.663 30.0753 245.086 30.9293 245.94 32.068C246.835 33.166 247.282 34.5283 247.282 36.155C247.282 37.7817 246.835 39.266 245.94 40.608C245.086 41.95 243.663 43.0277 241.67 43.841C239.677 44.6137 236.993 45 233.618 45C232.357 45 231.056 44.9593 229.714 44.878C228.372 44.7967 226.949 44.756 225.444 44.756C224.183 44.756 222.841 44.7967 221.418 44.878C219.995 44.9187 218.937 44.9593 218.246 45V43.719C219.913 43.719 221.093 43.414 221.784 42.804C222.516 42.194 222.882 41.035 222.882 39.327V19.319C222.882 17.611 222.516 16.452 221.784 15.842C221.093 15.232 219.913 14.927 218.246 14.927V13.646C218.937 13.6867 219.995 13.7477 221.418 13.829C222.841 13.8697 224.183 13.89 225.444 13.89C226.908 13.89 228.331 13.8493 229.714 13.768C231.097 13.6867 232.337 13.646 233.435 13.646ZM272.409 1.812C273.263 1.85267 274.381 1.89333 275.764 1.934C277.147 1.97466 278.509 1.995 279.851 1.995C281.762 1.995 283.592 1.97466 285.341 1.934C287.09 1.89333 288.33 1.873 289.062 1.873C293.983 1.873 297.663 2.99133 300.103 5.228C302.543 7.46467 303.763 10.352 303.763 13.89C303.763 15.354 303.519 16.8993 303.031 18.526C302.543 20.112 301.689 21.5963 300.469 22.979C299.29 24.321 297.663 25.419 295.589 26.273C293.515 27.127 290.892 27.554 287.72 27.554H281.864V26.334H287.11C289.997 26.334 292.193 25.785 293.698 24.687C295.243 23.589 296.28 22.1453 296.809 20.356C297.378 18.5667 297.663 16.635 297.663 14.561C297.663 10.6977 296.89 7.81033 295.345 5.899C293.84 3.98767 291.238 3.032 287.537 3.032C285.666 3.032 284.446 3.37767 283.877 4.069C283.308 4.76033 283.023 6.16333 283.023 8.278V38.534C283.023 39.998 283.165 41.096 283.45 41.828C283.775 42.56 284.385 43.048 285.28 43.292C286.175 43.536 287.476 43.6987 289.184 43.78V45C288.127 44.9187 286.785 44.878 285.158 44.878C283.531 44.8373 281.884 44.817 280.217 44.817C278.631 44.817 277.147 44.8373 275.764 44.878C274.381 44.878 273.263 44.9187 272.409 45V43.78C273.792 43.6987 274.829 43.536 275.52 43.292C276.252 43.048 276.74 42.56 276.984 41.828C277.228 41.096 277.35 39.998 277.35 38.534V8.278C277.35 6.77333 277.228 5.67533 276.984 4.984C276.74 4.252 276.252 3.764 275.52 3.52C274.829 3.23533 273.792 3.07266 272.409 3.032V1.812ZM324.028 12.731C326.631 12.731 328.969 13.3003 331.043 14.439C333.117 15.5777 334.764 17.367 335.984 19.807C337.245 22.247 337.875 25.419 337.875 29.323C337.875 33.227 337.245 36.399 335.984 38.839C334.764 41.2383 333.117 43.0073 331.043 44.146C328.969 45.2847 326.631 45.854 324.028 45.854C321.466 45.854 319.128 45.2847 317.013 44.146C314.939 43.0073 313.272 41.2383 312.011 38.839C310.791 36.399 310.181 33.227 310.181 29.323C310.181 25.419 310.791 22.247 312.011 19.807C313.272 17.367 314.939 15.5777 317.013 14.439C319.128 13.3003 321.466 12.731 324.028 12.731ZM324.028 13.951C321.71 13.951 319.799 15.1507 318.294 17.55C316.83 19.9493 316.098 23.8737 316.098 29.323C316.098 34.7723 316.83 38.6967 318.294 41.096C319.799 43.4547 321.71 44.634 324.028 44.634C326.346 44.634 328.237 43.4547 329.701 41.096C331.206 38.6967 331.958 34.7723 331.958 29.323C331.958 23.8737 331.206 19.9493 329.701 17.55C328.237 15.1507 326.346 13.951 324.028 13.951ZM360.192 12.731C361.494 12.731 362.754 12.8937 363.974 13.219C365.194 13.5443 366.292 14.0323 367.268 14.683C368.204 15.293 368.915 16.0047 369.403 16.818C369.891 17.5907 370.135 18.4447 370.135 19.38C370.135 20.478 369.83 21.332 369.22 21.942C368.61 22.5113 367.838 22.796 366.902 22.796C366.008 22.796 365.215 22.5317 364.523 22.003C363.873 21.4743 363.547 20.722 363.547 19.746C363.547 18.8107 363.791 18.0583 364.279 17.489C364.808 16.9197 365.418 16.5537 366.109 16.391C365.703 15.659 364.971 15.049 363.913 14.561C362.897 14.073 361.799 13.829 360.619 13.829C359.603 13.829 358.586 14.073 357.569 14.561C356.553 15.049 355.617 15.8623 354.763 17.001C353.909 18.099 353.218 19.624 352.689 21.576C352.161 23.4873 351.896 25.8867 351.896 28.774C351.896 32.3527 352.303 35.1993 353.116 37.314C353.93 39.4287 354.987 40.9537 356.288 41.889C357.63 42.7837 359.094 43.231 360.68 43.231C361.738 43.231 362.815 43.0277 363.913 42.621C365.011 42.2143 366.048 41.5637 367.024 40.669C368 39.7337 368.834 38.4933 369.525 36.948L370.684 37.375C370.278 38.6763 369.607 39.998 368.671 41.34C367.736 42.6413 366.516 43.719 365.011 44.573C363.507 45.427 361.656 45.854 359.46 45.854C356.939 45.854 354.662 45.2033 352.628 43.902C350.595 42.6007 348.968 40.7503 347.748 38.351C346.569 35.911 345.979 33.0237 345.979 29.689C345.979 26.3543 346.569 23.4263 347.748 20.905C348.968 18.343 350.656 16.3503 352.811 14.927C354.967 13.463 357.427 12.731 360.192 12.731ZM392.298 12.731C393.6 12.731 394.86 12.8937 396.08 13.219C397.3 13.5443 398.398 14.0323 399.374 14.683C400.31 15.293 401.021 16.0047 401.509 16.818C401.997 17.5907 402.241 18.4447 402.241 19.38C402.241 20.478 401.936 21.332 401.326 21.942C400.716 22.5113 399.944 22.796 399.008 22.796C398.114 22.796 397.321 22.5317 396.629 22.003C395.979 21.4743 395.653 20.722 395.653 19.746C395.653 18.8107 395.897 18.0583 396.385 17.489C396.914 16.9197 397.524 16.5537 398.215 16.391C397.809 15.659 397.077 15.049 396.019 14.561C395.003 14.073 393.905 13.829 392.725 13.829C391.709 13.829 390.692 14.073 389.675 14.561C388.659 15.049 387.723 15.8623 386.869 17.001C386.015 18.099 385.324 19.624 384.795 21.576C384.267 23.4873 384.002 25.8867 384.002 28.774C384.002 32.3527 384.409 35.1993 385.222 37.314C386.036 39.4287 387.093 40.9537 388.394 41.889C389.736 42.7837 391.2 43.231 392.786 43.231C393.844 43.231 394.921 43.0277 396.019 42.621C397.117 42.2143 398.154 41.5637 399.13 40.669C400.106 39.7337 400.94 38.4933 401.631 36.948L402.79 37.375C402.384 38.6763 401.713 39.998 400.777 41.34C399.842 42.6413 398.622 43.719 397.117 44.573C395.613 45.427 393.762 45.854 391.566 45.854C389.045 45.854 386.768 45.2033 384.734 43.902C382.701 42.6007 381.074 40.7503 379.854 38.351C378.675 35.911 378.085 33.0237 378.085 29.689C378.085 26.3543 378.675 23.4263 379.854 20.905C381.074 18.343 382.762 16.3503 384.917 14.927C387.073 13.463 389.533 12.731 392.298 12.731ZM443.802 13.646V14.927C442.135 14.927 440.935 15.232 440.203 15.842C439.512 16.452 439.166 17.611 439.166 19.319V39.327C439.166 41.035 439.512 42.194 440.203 42.804C440.935 43.414 442.135 43.719 443.802 43.719V45C443.111 44.9593 442.054 44.9187 440.63 44.878C439.207 44.7967 437.824 44.756 436.482 44.756C435.14 44.756 433.819 44.7967 432.517 44.878C431.257 44.9187 430.301 44.9593 429.65 45V43.719C431.114 43.719 432.151 43.414 432.761 42.804C433.371 42.194 433.676 41.035 433.676 39.327V19.319C433.676 17.611 433.371 16.452 432.761 15.842C432.151 15.232 431.114 14.927 429.65 14.927V13.646C430.301 13.6867 431.257 13.7477 432.517 13.829C433.819 13.8697 435.14 13.89 436.482 13.89C437.824 13.89 439.207 13.8697 440.63 13.829C442.054 13.7477 443.111 13.6867 443.802 13.646ZM423.306 13.646V14.927C421.842 14.927 420.805 15.232 420.195 15.842C419.585 16.452 419.28 17.611 419.28 19.319V39.327C419.28 41.035 419.585 42.194 420.195 42.804C420.805 43.414 421.842 43.719 423.306 43.719V45C422.656 44.9593 421.68 44.9187 420.378 44.878C419.118 44.7967 417.816 44.756 416.474 44.756C415.132 44.756 413.75 44.7967 412.326 44.878C410.903 44.9187 409.846 44.9593 409.154 45V43.719C410.822 43.719 412.001 43.414 412.692 42.804C413.424 42.194 413.79 41.035 413.79 39.327V19.319C413.79 17.611 413.424 16.452 412.692 15.842C412.001 15.232 410.822 14.927 409.154 14.927V13.646C409.846 13.6867 410.903 13.7477 412.326 13.829C413.75 13.8697 415.132 13.89 416.474 13.89C417.816 13.89 419.118 13.8697 420.378 13.829C421.68 13.7477 422.656 13.6867 423.306 13.646ZM434.286 17.916L435.262 18.587L418.487 41.767L417.511 41.035L434.286 17.916ZM484.427 13.646V14.927C482.76 14.927 481.56 15.232 480.828 15.842C480.137 16.452 479.791 17.611 479.791 19.319V39.327C479.791 41.035 480.137 42.194 480.828 42.804C481.56 43.414 482.76 43.719 484.427 43.719V45C483.736 44.9593 482.678 44.9187 481.255 44.878C479.832 44.7967 478.449 44.756 477.107 44.756C475.765 44.756 474.443 44.7967 473.142 44.878C471.881 44.9187 470.926 44.9593 470.275 45V43.719C471.739 43.719 472.776 43.414 473.386 42.804C473.996 42.194 474.301 41.035 474.301 39.327V19.319C474.301 17.611 473.996 16.452 473.386 15.842C472.776 15.232 471.739 14.927 470.275 14.927V13.646C470.926 13.6867 471.881 13.7477 473.142 13.829C474.443 13.8697 475.765 13.89 477.107 13.89C478.449 13.89 479.832 13.8697 481.255 13.829C482.678 13.7477 483.736 13.6867 484.427 13.646ZM463.931 13.646V14.927C462.467 14.927 461.43 15.232 460.82 15.842C460.21 16.452 459.905 17.611 459.905 19.319V39.327C459.905 41.035 460.21 42.194 460.82 42.804C461.43 43.414 462.467 43.719 463.931 43.719V45C463.28 44.9593 462.304 44.9187 461.003 44.878C459.742 44.7967 458.441 44.756 457.099 44.756C455.757 44.756 454.374 44.7967 452.951 44.878C451.528 44.9187 450.47 44.9593 449.779 45V43.719C451.446 43.719 452.626 43.414 453.317 42.804C454.049 42.194 454.415 41.035 454.415 39.327V19.319C454.415 17.611 454.049 16.452 453.317 15.842C452.626 15.232 451.446 14.927 449.779 14.927V13.646C450.47 13.6867 451.528 13.7477 452.951 13.829C454.374 13.8697 455.757 13.89 457.099 13.89C458.441 13.89 459.742 13.8697 461.003 13.829C462.304 13.7477 463.28 13.6867 463.931 13.646ZM474.911 17.916L475.887 18.587L459.112 41.767L458.136 41.035L474.911 17.916ZM35.417 104.646V105.927C33.7497 105.927 32.55 106.232 31.818 106.842C31.1267 107.452 30.781 108.611 30.781 110.319V130.327C30.781 132.035 31.1267 133.194 31.818 133.804C32.55 134.414 33.7497 134.719 35.417 134.719V136C34.7257 135.959 33.6683 135.919 32.245 135.878C30.8217 135.797 29.439 135.756 28.097 135.756C26.755 135.756 25.4333 135.797 24.132 135.878C22.8713 135.919 21.9157 135.959 21.265 136V134.719C22.729 134.719 23.766 134.414 24.376 133.804C24.986 133.194 25.291 132.035 25.291 130.327V110.319C25.291 108.611 24.986 107.452 24.376 106.842C23.766 106.232 22.729 105.927 21.265 105.927V104.646C21.9157 104.687 22.8713 104.748 24.132 104.829C25.4333 104.87 26.755 104.89 28.097 104.89C29.439 104.89 30.8217 104.87 32.245 104.829C33.6683 104.748 34.7257 104.687 35.417 104.646ZM14.921 104.646V105.927C13.457 105.927 12.42 106.232 11.81 106.842C11.2 107.452 10.895 108.611 10.895 110.319V130.327C10.895 132.035 11.2 133.194 11.81 133.804C12.42 134.414 13.457 134.719 14.921 134.719V136C14.2703 135.959 13.2943 135.919 11.993 135.878C10.7323 135.797 9.431 135.756 8.089 135.756C6.747 135.756 5.36433 135.797 3.941 135.878C2.51767 135.919 1.46033 135.959 0.769 136V134.719C2.43633 134.719 3.61567 134.414 4.307 133.804C5.039 133.194 5.405 132.035 5.405 130.327V110.319C5.405 108.611 5.039 107.452 4.307 106.842C3.61567 106.232 2.43633 105.927 0.769 105.927V104.646C1.46033 104.687 2.51767 104.748 3.941 104.829C5.36433 104.87 6.747 104.89 8.089 104.89C9.431 104.89 10.7323 104.87 11.993 104.829C13.2943 104.748 14.2703 104.687 14.921 104.646ZM25.901 108.916L26.877 109.587L10.102 132.767L9.126 132.035L25.901 108.916ZM88.06 88.054L88.975 88.298C88.5683 89.64 88.1007 90.86 87.572 91.958C87.0433 93.056 86.3723 93.9303 85.559 94.581C84.9083 95.1097 84.0747 95.557 83.058 95.923C82.0413 96.289 80.7603 96.5127 79.215 96.594C78.5643 96.6347 77.629 96.6957 76.409 96.777C75.189 96.8583 74.0503 97.0007 72.993 97.204C71.3257 97.4887 69.9023 97.997 68.723 98.729C67.5437 99.4203 66.5473 100.437 65.734 101.779C64.9613 103.121 64.331 104.87 63.843 107.025C63.355 109.18 62.9483 111.824 62.623 114.955L65.673 118.676L62.196 116.968C62.806 113.877 63.7617 111.478 65.063 109.77C66.405 108.021 67.9707 106.781 69.76 106.049C71.5493 105.317 73.4403 104.951 75.433 104.951C78.6457 104.951 81.2077 105.683 83.119 107.147C85.0303 108.57 86.413 110.441 87.267 112.759C88.1617 115.036 88.609 117.497 88.609 120.14C88.609 123.475 87.999 126.403 86.779 128.924C85.559 131.445 83.851 133.397 81.655 134.78C79.4997 136.163 76.9783 136.854 74.091 136.854C72.139 136.854 70.37 136.508 68.784 135.817C67.198 135.085 65.8357 133.946 64.697 132.401C63.5583 130.815 62.6637 128.761 62.013 126.24C61.403 123.719 61.098 120.628 61.098 116.968C61.098 116.439 61.1183 115.565 61.159 114.345C61.1997 113.125 61.3013 111.722 61.464 110.136C61.6267 108.55 61.891 106.923 62.257 105.256C62.623 103.548 63.111 101.921 63.721 100.376C64.331 98.8307 65.124 97.5293 66.1 96.472C66.9133 95.5773 67.93 94.825 69.15 94.215C70.37 93.5643 71.7933 93.0967 73.42 92.812C74.6807 92.6087 76.0023 92.4663 77.385 92.385C78.7677 92.3037 79.8453 92.2427 80.618 92.202C82.8953 92.0393 84.5423 91.6327 85.559 90.982C86.5757 90.3313 87.4093 89.3553 88.06 88.054ZM75.189 106.232C73.8063 106.232 72.4847 106.679 71.224 107.574C69.9633 108.428 68.9263 109.892 68.113 111.966C67.2997 114.04 66.893 116.927 66.893 120.628C66.893 124.247 67.2793 127.175 68.052 129.412C68.8653 131.608 69.9023 133.194 71.163 134.17C72.4237 135.146 73.7453 135.634 75.128 135.634C76.714 135.634 77.995 135.126 78.971 134.109C79.9877 133.052 80.7603 131.73 81.289 130.144C81.8177 128.517 82.1837 126.809 82.387 125.02C82.5903 123.19 82.692 121.502 82.692 119.957C82.692 114.996 81.9803 111.478 80.557 109.404C79.1743 107.289 77.385 106.232 75.189 106.232ZM122.233 104.646V105.927C120.566 105.927 119.366 106.232 118.634 106.842C117.943 107.452 117.597 108.611 117.597 110.319V130.327C117.597 132.035 117.943 133.194 118.634 133.804C119.366 134.414 120.566 134.719 122.233 134.719V136C121.542 135.959 120.525 135.919 119.183 135.878C117.841 135.797 116.377 135.756 114.791 135.756C113.205 135.756 111.599 135.797 109.972 135.878C108.386 135.919 107.146 135.959 106.251 136V134.719C108.081 134.719 109.504 134.434 110.521 133.865C111.578 133.255 112.107 132.076 112.107 130.327V110.319C112.107 108.611 111.802 107.452 111.192 106.842C110.582 106.232 109.545 105.927 108.081 105.927H107.532C106.515 105.927 105.844 106.232 105.519 106.842C105.194 107.452 104.95 108.611 104.787 110.319C104.462 114.101 104.055 117.72 103.567 121.177C103.12 124.593 102.347 127.684 101.249 130.449C100.842 131.425 100.334 132.421 99.7239 133.438C99.1139 134.414 98.3615 135.227 97.4669 135.878C96.6129 136.529 95.5759 136.854 94.3559 136.854C93.6239 136.854 92.9325 136.712 92.2819 136.427C91.6312 136.183 91.1025 135.797 90.6959 135.268C90.2892 134.699 90.0859 134.007 90.0859 133.194C90.0859 132.177 90.3909 131.384 91.0009 130.815C91.6109 130.246 92.4039 129.961 93.3799 129.961C94.2339 129.961 94.9455 130.205 95.5149 130.693C96.1249 131.181 96.4299 131.913 96.4299 132.889C96.4299 133.54 96.2469 134.129 95.8809 134.658C95.5149 135.146 94.9252 135.553 94.1119 135.878C94.1932 135.919 94.2949 135.939 94.4169 135.939C94.5795 135.939 94.6812 135.939 94.7219 135.939C95.7385 135.939 96.5925 135.614 97.2839 134.963C98.0159 134.272 98.6259 133.479 99.1139 132.584C99.6425 131.649 100.029 130.835 100.273 130.144C100.924 128.436 101.473 126.525 101.92 124.41C102.367 122.295 102.733 120.038 103.018 117.639C103.303 115.24 103.526 112.8 103.689 110.319C103.811 108.611 103.445 107.452 102.591 106.842C101.778 106.232 100.537 105.927 98.8699 105.927V104.646C99.1952 104.687 99.7035 104.748 100.395 104.829C101.127 104.87 102.001 104.89 103.018 104.89C103.831 104.89 104.665 104.89 105.519 104.89C106.414 104.89 107.308 104.89 108.203 104.89C108.976 104.89 109.687 104.89 110.338 104.89C110.989 104.89 111.68 104.89 112.412 104.89C113.144 104.89 113.957 104.89 114.852 104.89C115.787 104.89 116.723 104.87 117.658 104.829C118.634 104.788 119.529 104.748 120.342 104.707C121.155 104.666 121.786 104.646 122.233 104.646ZM162.888 104.646V105.927C161.221 105.927 160.021 106.232 159.289 106.842C158.598 107.452 158.252 108.611 158.252 110.319V130.327C158.252 132.035 158.598 133.194 159.289 133.804C160.021 134.414 161.221 134.719 162.888 134.719V136C162.197 135.959 161.139 135.919 159.716 135.878C158.293 135.797 156.91 135.756 155.568 135.756C154.226 135.756 152.904 135.797 151.603 135.878C150.342 135.919 149.387 135.959 148.736 136V134.719C150.2 134.719 151.237 134.414 151.847 133.804C152.457 133.194 152.762 132.035 152.762 130.327V110.319C152.762 108.611 152.457 107.452 151.847 106.842C151.237 106.232 150.2 105.927 148.736 105.927V104.646C149.387 104.687 150.342 104.748 151.603 104.829C152.904 104.87 154.226 104.89 155.568 104.89C156.91 104.89 158.293 104.87 159.716 104.829C161.139 104.748 162.197 104.687 162.888 104.646ZM142.392 104.646V105.927C140.928 105.927 139.891 106.232 139.281 106.842C138.671 107.452 138.366 108.611 138.366 110.319V130.327C138.366 132.035 138.671 133.194 139.281 133.804C139.891 134.414 140.928 134.719 142.392 134.719V136C141.741 135.959 140.765 135.919 139.464 135.878C138.203 135.797 136.902 135.756 135.56 135.756C134.218 135.756 132.835 135.797 131.412 135.878C129.989 135.919 128.931 135.959 128.24 136V134.719C129.907 134.719 131.087 134.414 131.778 133.804C132.51 133.194 132.876 132.035 132.876 130.327V110.319C132.876 108.611 132.51 107.452 131.778 106.842C131.087 106.232 129.907 105.927 128.24 105.927V104.646C128.931 104.687 129.989 104.748 131.412 104.829C132.835 104.87 134.218 104.89 135.56 104.89C136.902 104.89 138.203 104.87 139.464 104.829C140.765 104.748 141.741 104.687 142.392 104.646ZM153.372 108.916L154.348 109.587L137.573 132.767L136.597 132.035L153.372 108.916ZM212.236 103.731C213.659 103.731 214.655 104.077 215.225 104.768C215.835 105.459 216.14 106.232 216.14 107.086C216.14 107.981 215.855 108.753 215.286 109.404C214.716 110.014 213.923 110.319 212.907 110.319C212.175 110.319 211.544 110.156 211.016 109.831C210.487 109.506 210.08 109.058 209.796 108.489C209.511 107.879 209.369 107.188 209.369 106.415C209.369 106.334 209.369 106.252 209.369 106.171C209.369 106.09 209.369 106.029 209.369 105.988C208.881 106.191 208.454 106.618 208.088 107.269C207.722 107.879 207.356 108.631 206.99 109.526C206.664 110.421 206.278 111.417 205.831 112.515C205.261 114.02 204.57 115.402 203.757 116.663C202.984 117.924 201.662 118.818 199.792 119.347L199.731 119.164C201.398 119.164 202.842 119.306 204.062 119.591C205.322 119.876 206.42 120.323 207.356 120.933C208.291 121.543 209.064 122.356 209.674 123.373C210.365 124.471 210.934 125.793 211.382 127.338C211.87 128.843 212.378 130.185 212.907 131.364C213.354 132.381 213.862 133.174 214.432 133.743C215.042 134.272 215.977 134.597 217.238 134.719V136C216.587 136.122 215.936 136.224 215.286 136.305C214.676 136.386 214.086 136.427 213.517 136.427C211.931 136.427 210.65 136.061 209.674 135.329C208.738 134.597 208.006 133.336 207.478 131.547C207.193 130.49 206.786 129.148 206.258 127.521C205.77 125.854 205.099 124.43 204.245 123.251C203.35 121.99 202.191 121.177 200.768 120.811C199.344 120.404 197.494 120.242 195.217 120.323V119.286C197.453 119.123 199.182 118.737 200.402 118.127C201.622 117.517 202.557 116.663 203.208 115.565C203.899 114.426 204.509 113.064 205.038 111.478C205.444 110.339 205.892 109.18 206.38 108.001C206.868 106.781 207.559 105.764 208.454 104.951C209.389 104.138 210.65 103.731 212.236 103.731ZM173.318 103.731C174.904 103.731 176.144 104.138 177.039 104.951C177.974 105.764 178.686 106.781 179.174 108.001C179.702 109.18 180.15 110.339 180.516 111.478C181.085 113.064 181.695 114.426 182.346 115.565C182.996 116.663 183.932 117.517 185.152 118.127C186.372 118.737 188.1 119.123 190.337 119.286V120.323C188.222 120.242 186.412 120.384 184.908 120.75C183.444 121.116 182.244 121.95 181.309 123.251C180.739 124.064 180.231 125.04 179.784 126.179C179.336 127.277 178.97 128.334 178.686 129.351C178.442 130.327 178.238 131.059 178.076 131.547C177.547 133.336 176.795 134.597 175.819 135.329C174.883 136.061 173.623 136.427 172.037 136.427C171.467 136.427 170.857 136.386 170.207 136.305C169.597 136.224 168.966 136.122 168.316 136V134.719C169.576 134.597 170.491 134.272 171.061 133.743C171.671 133.174 172.199 132.381 172.647 131.364C173.175 130.185 173.684 128.843 174.172 127.338C174.66 125.793 175.229 124.471 175.88 123.373C176.571 122.275 177.405 121.421 178.381 120.811C179.397 120.201 180.516 119.774 181.736 119.53C182.996 119.286 184.359 119.164 185.823 119.164L185.762 119.347C183.891 118.818 182.549 117.924 181.736 116.663C180.963 115.402 180.292 114.02 179.723 112.515C179.316 111.458 178.93 110.482 178.564 109.587C178.238 108.652 177.872 107.879 177.466 107.269C177.1 106.618 176.673 106.191 176.185 105.988C176.185 106.029 176.185 106.09 176.185 106.171C176.185 106.252 176.185 106.334 176.185 106.415C176.185 107.188 176.042 107.879 175.758 108.489C175.473 109.058 175.066 109.506 174.538 109.831C174.009 110.156 173.379 110.319 172.647 110.319C171.63 110.319 170.837 110.014 170.268 109.404C169.698 108.753 169.414 107.981 169.414 107.086C169.414 106.232 169.698 105.459 170.268 104.768C170.878 104.077 171.894 103.731 173.318 103.731ZM199.548 104.646V105.927C198.084 105.927 197.047 106.232 196.437 106.842C195.827 107.452 195.522 108.611 195.522 110.319V130.327C195.522 132.035 195.827 133.194 196.437 133.804C197.047 134.414 198.084 134.719 199.548 134.719V136C198.897 135.959 197.921 135.919 196.62 135.878C195.359 135.797 194.078 135.756 192.777 135.756C191.516 135.756 190.235 135.797 188.934 135.878C187.632 135.919 186.656 135.959 186.006 136V134.719C187.47 134.719 188.507 134.414 189.117 133.804C189.727 133.194 190.032 132.035 190.032 130.327V110.319C190.032 108.611 189.727 107.452 189.117 106.842C188.507 106.232 187.47 105.927 186.006 105.927V104.646C186.656 104.687 187.632 104.748 188.934 104.829C190.235 104.87 191.516 104.89 192.777 104.89C194.078 104.89 195.359 104.87 196.62 104.829C197.921 104.748 198.897 104.687 199.548 104.646ZM256.387 104.646V105.927C254.72 105.927 253.52 106.232 252.788 106.842C252.097 107.452 251.751 108.611 251.751 110.319V130.327C251.751 132.035 252.097 133.194 252.788 133.804C253.52 134.414 254.72 134.719 256.387 134.719V136C255.696 135.959 254.638 135.919 253.215 135.878C251.792 135.797 250.409 135.756 249.067 135.756C247.725 135.756 246.403 135.797 245.102 135.878C243.841 135.919 242.886 135.959 242.235 136V134.719C243.699 134.719 244.736 134.414 245.346 133.804C245.956 133.194 246.261 132.035 246.261 130.327V110.319C246.261 108.611 245.956 107.452 245.346 106.842C244.736 106.232 243.699 105.927 242.235 105.927V104.646C242.886 104.687 243.841 104.748 245.102 104.829C246.403 104.87 247.725 104.89 249.067 104.89C250.409 104.89 251.792 104.87 253.215 104.829C254.638 104.748 255.696 104.687 256.387 104.646ZM236.806 104.646V105.927C235.342 105.927 234.305 106.232 233.695 106.842C233.085 107.452 232.78 108.611 232.78 110.319V130.327C232.78 132.035 233.085 133.194 233.695 133.804C234.305 134.414 235.342 134.719 236.806 134.719V136C236.155 135.959 235.179 135.919 233.878 135.878C232.617 135.797 231.316 135.756 229.974 135.756C228.632 135.756 227.249 135.797 225.826 135.878C224.403 135.919 223.345 135.959 222.654 136V134.719C224.321 134.719 225.501 134.414 226.192 133.804C226.924 133.194 227.29 132.035 227.29 130.327V110.319C227.29 108.611 226.924 107.452 226.192 106.842C225.501 106.232 224.321 105.927 222.654 105.927V104.646C223.345 104.687 224.403 104.748 225.826 104.829C227.249 104.87 228.632 104.89 229.974 104.89C231.316 104.89 232.617 104.87 233.878 104.829C235.179 104.748 236.155 104.687 236.806 104.646ZM247.969 119.225V120.445H230.767V119.225H247.969ZM277.208 103.731C280.787 103.731 283.572 104.829 285.565 107.025C287.598 109.18 288.615 112.556 288.615 117.151H267.082L267.021 115.992H282.759C282.84 113.999 282.678 112.169 282.271 110.502C281.864 108.794 281.214 107.432 280.319 106.415C279.465 105.398 278.347 104.89 276.964 104.89C275.093 104.89 273.426 105.825 271.962 107.696C270.539 109.567 269.685 112.535 269.4 116.602L269.583 116.846C269.502 117.456 269.441 118.127 269.4 118.859C269.359 119.591 269.339 120.323 269.339 121.055C269.339 123.82 269.786 126.199 270.681 128.192C271.576 130.185 272.735 131.71 274.158 132.767C275.622 133.784 277.127 134.292 278.672 134.292C279.892 134.292 281.051 134.109 282.149 133.743C283.247 133.336 284.264 132.686 285.199 131.791C286.134 130.896 286.948 129.697 287.639 128.192L288.859 128.68C288.412 130.022 287.68 131.323 286.663 132.584C285.646 133.845 284.365 134.882 282.82 135.695C281.275 136.468 279.485 136.854 277.452 136.854C274.524 136.854 272.003 136.183 269.888 134.841C267.814 133.499 266.208 131.649 265.069 129.29C263.971 126.891 263.422 124.146 263.422 121.055C263.422 117.476 263.991 114.406 265.13 111.844C266.269 109.241 267.875 107.249 269.949 105.866C272.023 104.443 274.443 103.731 277.208 103.731ZM335.516 104.585V105.805C334.133 105.846 333.076 106.008 332.344 106.293C331.652 106.537 331.185 107.025 330.941 107.757C330.697 108.448 330.575 109.546 330.575 111.051V129.534C330.575 130.998 330.697 132.096 330.941 132.828C331.185 133.56 331.652 134.048 332.344 134.292C333.076 134.536 334.133 134.699 335.516 134.78V136C334.58 135.919 333.442 135.878 332.1 135.878C330.758 135.837 329.375 135.817 327.952 135.817C326.366 135.817 324.881 135.837 323.499 135.878C322.116 135.878 320.998 135.919 320.144 136V134.78C321.526 134.699 322.563 134.536 323.255 134.292C323.987 134.048 324.475 133.56 324.719 132.828C324.963 132.096 325.085 130.998 325.085 129.534V108.123L313.739 136.305H312.763L301.905 108.489V129.534C301.905 130.998 302.027 132.096 302.271 132.828C302.515 133.56 302.982 134.048 303.674 134.292C304.406 134.536 305.463 134.699 306.846 134.78V136C306.114 135.919 305.26 135.878 304.284 135.878C303.348 135.837 302.352 135.817 301.295 135.817C300.278 135.817 299.241 135.837 298.184 135.878C297.167 135.878 296.313 135.919 295.622 136V134.78C297.004 134.699 298.041 134.536 298.733 134.292C299.465 134.048 299.953 133.56 300.197 132.828C300.441 132.096 300.563 130.998 300.563 129.534V111.051C300.563 109.546 300.441 108.448 300.197 107.757C299.953 107.025 299.465 106.537 298.733 106.293C298.041 106.008 297.004 105.846 295.622 105.805V104.585C296.313 104.626 297.167 104.666 298.184 104.707C299.241 104.748 300.278 104.768 301.295 104.768C303.084 104.768 304.65 104.707 305.992 104.585L315.63 130.144L314.898 130.266L325.085 104.768C325.532 104.768 325.979 104.768 326.427 104.768C326.915 104.768 327.423 104.768 327.952 104.768C329.375 104.768 330.737 104.748 332.039 104.707C333.381 104.666 334.54 104.626 335.516 104.585ZM372.603 103.731C374.433 103.731 376.019 104.036 377.361 104.646C378.703 105.256 379.74 106.09 380.472 107.147C381.204 108.204 381.57 109.445 381.57 110.868C381.57 112.535 381.082 113.938 380.106 115.077C379.13 116.175 377.93 117.07 376.507 117.761C375.083 118.412 373.68 118.9 372.298 119.225C374.534 119.306 376.466 119.672 378.093 120.323C379.76 120.933 381.041 121.828 381.936 123.007C382.871 124.146 383.339 125.589 383.339 127.338C383.339 129.29 382.729 130.978 381.509 132.401C380.289 133.824 378.662 134.922 376.629 135.695C374.636 136.468 372.481 136.854 370.163 136.854C368.414 136.854 366.889 136.63 365.588 136.183C364.327 135.776 363.229 135.268 362.294 134.658C361.48 134.089 360.789 133.458 360.22 132.767C359.691 132.076 359.427 131.283 359.427 130.388C359.427 129.412 359.732 128.619 360.342 128.009C360.952 127.399 361.724 127.094 362.66 127.094C363.595 127.094 364.388 127.379 365.039 127.948C365.689 128.517 366.015 129.331 366.015 130.388C366.015 131.242 365.771 131.933 365.283 132.462C364.835 132.991 364.225 133.336 363.453 133.499C363.819 134.109 364.693 134.658 366.076 135.146C367.458 135.593 368.841 135.817 370.224 135.817C372.704 135.817 374.575 135.065 375.836 133.56C377.096 132.055 377.727 130.144 377.727 127.826C377.727 125.549 377.157 123.658 376.019 122.153C374.921 120.608 373.355 119.815 371.322 119.774C370.915 119.977 370.488 120.16 370.041 120.323C369.634 120.486 369.207 120.567 368.76 120.567C367.865 120.567 367.418 120.221 367.418 119.53C367.418 118.879 367.885 118.554 368.821 118.554C369.227 118.554 369.654 118.595 370.102 118.676C370.549 118.757 370.976 118.839 371.383 118.92C373.253 118.351 374.514 117.395 375.165 116.053C375.815 114.711 376.141 113.227 376.141 111.6C376.141 109.607 375.754 108.001 374.982 106.781C374.209 105.52 373.009 104.89 371.383 104.89C369.919 104.89 368.516 105.337 367.174 106.232C365.832 107.086 364.734 108.306 363.88 109.892C363.066 111.478 362.68 113.328 362.721 115.443H361.318C361.399 113.491 361.419 111.803 361.379 110.38C361.338 108.916 361.277 107.676 361.196 106.659C361.155 105.642 361.094 104.829 361.013 104.219H362.416C362.538 105.114 362.68 105.785 362.843 106.232C363.046 106.679 363.351 106.903 363.758 106.903C364.002 106.903 364.286 106.801 364.612 106.598C364.978 106.395 365.384 106.151 365.832 105.866C366.564 105.378 367.438 104.91 368.455 104.463C369.512 103.975 370.895 103.731 372.603 103.731ZM398.637 136.427C396.97 136.427 395.526 136.122 394.306 135.512C393.086 134.861 392.151 133.967 391.5 132.828C390.89 131.689 390.585 130.368 390.585 128.863C390.585 127.074 390.992 125.61 391.805 124.471C392.659 123.332 393.737 122.417 395.038 121.726C396.34 121.035 397.702 120.465 399.125 120.018C400.589 119.53 401.972 119.083 403.273 118.676C404.575 118.229 405.632 117.72 406.445 117.151C407.299 116.582 407.726 115.829 407.726 114.894V111.112C407.726 109.404 407.462 108.103 406.933 107.208C406.445 106.313 405.774 105.724 404.92 105.439C404.066 105.114 403.111 104.951 402.053 104.951C401.037 104.951 399.939 105.093 398.759 105.378C397.621 105.663 396.706 106.252 396.014 107.147C396.787 107.31 397.458 107.716 398.027 108.367C398.597 109.018 398.881 109.851 398.881 110.868C398.881 111.885 398.556 112.698 397.905 113.308C397.255 113.877 396.421 114.162 395.404 114.162C394.225 114.162 393.351 113.796 392.781 113.064C392.253 112.291 391.988 111.437 391.988 110.502C391.988 109.445 392.253 108.591 392.781 107.94C393.31 107.289 393.981 106.679 394.794 106.11C395.73 105.459 396.929 104.91 398.393 104.463C399.898 103.975 401.586 103.731 403.456 103.731C405.124 103.731 406.547 103.934 407.726 104.341C408.906 104.707 409.882 105.256 410.654 105.988C411.712 106.964 412.403 108.164 412.728 109.587C413.054 110.97 413.216 112.637 413.216 114.589V131.547C413.216 132.564 413.359 133.296 413.643 133.743C413.969 134.19 414.457 134.414 415.107 134.414C415.555 134.414 415.982 134.312 416.388 134.109C416.795 133.906 417.283 133.58 417.852 133.133L418.523 134.17C417.669 134.821 416.856 135.37 416.083 135.817C415.311 136.224 414.274 136.427 412.972 136.427C411.793 136.427 410.817 136.224 410.044 135.817C409.272 135.41 408.682 134.821 408.275 134.048C407.909 133.235 407.726 132.218 407.726 130.998C406.628 132.828 405.307 134.19 403.761 135.085C402.257 135.98 400.549 136.427 398.637 136.427ZM400.833 133.987C402.175 133.987 403.416 133.601 404.554 132.828C405.734 132.055 406.791 130.896 407.726 129.351V117.395C407.238 118.086 406.527 118.676 405.591 119.164C404.656 119.611 403.639 120.079 402.541 120.567C401.443 121.014 400.386 121.563 399.369 122.214C398.393 122.824 397.58 123.637 396.929 124.654C396.279 125.671 395.953 126.992 395.953 128.619C395.953 130.246 396.38 131.547 397.234 132.523C398.129 133.499 399.329 133.987 400.833 133.987ZM432.495 103.914V141.368C432.495 143.117 433.003 144.276 434.02 144.845C435.077 145.455 436.521 145.76 438.351 145.76V147.041C437.456 147 436.216 146.939 434.63 146.858C433.044 146.817 431.356 146.797 429.567 146.797C428.306 146.797 427.046 146.817 425.785 146.858C424.565 146.939 423.63 147 422.979 147.041V145.76C424.443 145.76 425.48 145.496 426.09 144.967C426.7 144.438 427.005 143.442 427.005 141.978V111.234C427.005 109.404 426.68 108.062 426.029 107.208C425.378 106.313 424.158 105.866 422.369 105.866V104.585C423.67 104.707 424.931 104.768 426.151 104.768C427.33 104.768 428.449 104.707 429.506 104.585C430.604 104.422 431.6 104.199 432.495 103.914ZM442.255 103.731C444.41 103.731 446.342 104.321 448.05 105.5C449.758 106.639 451.1 108.326 452.076 110.563C453.093 112.8 453.601 115.565 453.601 118.859C453.601 121.055 453.337 123.231 452.808 125.386C452.279 127.501 451.446 129.432 450.307 131.181C449.209 132.889 447.765 134.272 445.976 135.329C444.227 136.346 442.113 136.854 439.632 136.854C437.721 136.854 436.053 136.407 434.63 135.512C433.247 134.617 432.312 133.54 431.824 132.279L432.434 131.425C433.003 132.564 433.817 133.519 434.874 134.292C435.972 135.065 437.334 135.451 438.961 135.451C441.238 135.451 443.007 134.739 444.268 133.316C445.529 131.893 446.403 130.002 446.891 127.643C447.42 125.244 447.684 122.6 447.684 119.713C447.684 116.46 447.42 113.796 446.891 111.722C446.362 109.648 445.569 108.103 444.512 107.086C443.455 106.069 442.153 105.561 440.608 105.561C438.615 105.561 436.806 106.395 435.179 108.062C433.552 109.689 432.515 112.169 432.068 115.504L431.336 114.65C431.783 111.193 433.003 108.509 434.996 106.598C437.029 104.687 439.449 103.731 442.255 103.731ZM488.331 104.585V105.805C487.558 105.886 486.846 106.232 486.196 106.842C485.545 107.452 484.935 108.53 484.366 110.075L474.362 136.305H473.325L462.101 109.282C461.328 107.696 460.555 106.74 459.783 106.415C459.051 106.049 458.441 105.866 457.953 105.866V104.585C458.847 104.707 459.783 104.809 460.759 104.89C461.735 104.931 462.792 104.951 463.931 104.951C465.191 104.951 466.513 104.91 467.896 104.829C469.319 104.748 470.641 104.666 471.861 104.585V105.866C470.844 105.866 469.929 105.947 469.116 106.11C468.343 106.232 467.855 106.659 467.652 107.391C467.448 108.082 467.692 109.282 468.384 110.99L475.887 129.595L475.521 129.717L482.475 111.539C483.003 110.197 483.207 109.14 483.085 108.367C483.003 107.554 482.597 106.944 481.865 106.537C481.133 106.13 480.035 105.886 478.571 105.805V104.585C479.303 104.626 479.933 104.666 480.462 104.707C480.99 104.707 481.499 104.727 481.987 104.768C482.515 104.768 483.085 104.768 483.695 104.768C484.63 104.768 485.464 104.748 486.196 104.707C486.968 104.666 487.68 104.626 488.331 104.585ZM474.362 136.305L472.288 141.612C471.881 142.629 471.454 143.483 471.007 144.174C470.6 144.865 470.153 145.435 469.665 145.882C469.014 146.492 468.241 146.899 467.347 147.102C466.452 147.346 465.639 147.468 464.907 147.468C464.134 147.468 463.422 147.326 462.772 147.041C462.162 146.756 461.674 146.329 461.308 145.76C460.942 145.231 460.759 144.581 460.759 143.808C460.759 142.832 461.043 142.039 461.613 141.429C462.182 140.86 462.975 140.575 463.992 140.575C464.846 140.575 465.578 140.819 466.188 141.307C466.798 141.795 467.103 142.507 467.103 143.442C467.103 144.133 466.94 144.703 466.615 145.15C466.289 145.597 465.903 145.943 465.456 146.187C465.537 146.228 465.598 146.248 465.639 146.248C465.72 146.248 465.781 146.248 465.822 146.248C466.92 146.248 467.896 145.862 468.75 145.089C469.604 144.357 470.356 143.157 471.007 141.49L473.203 135.817L474.362 136.305ZM522.18 88.054L523.095 88.298C522.688 89.64 522.221 90.86 521.692 91.958C521.163 93.056 520.492 93.9303 519.679 94.581C519.028 95.1097 518.195 95.557 517.178 95.923C516.161 96.289 514.88 96.5127 513.335 96.594C512.684 96.6347 511.749 96.6957 510.529 96.777C509.309 96.8583 508.17 97.0007 507.113 97.204C505.446 97.4887 504.022 97.997 502.843 98.729C501.664 99.4203 500.667 100.437 499.854 101.779C499.081 103.121 498.451 104.87 497.963 107.025C497.475 109.18 497.068 111.824 496.743 114.955L499.793 118.676L496.316 116.968C496.926 113.877 497.882 111.478 499.183 109.77C500.525 108.021 502.091 106.781 503.88 106.049C505.669 105.317 507.56 104.951 509.553 104.951C512.766 104.951 515.328 105.683 517.239 107.147C519.15 108.57 520.533 110.441 521.387 112.759C522.282 115.036 522.729 117.497 522.729 120.14C522.729 123.475 522.119 126.403 520.899 128.924C519.679 131.445 517.971 133.397 515.775 134.78C513.62 136.163 511.098 136.854 508.211 136.854C506.259 136.854 504.49 136.508 502.904 135.817C501.318 135.085 499.956 133.946 498.817 132.401C497.678 130.815 496.784 128.761 496.133 126.24C495.523 123.719 495.218 120.628 495.218 116.968C495.218 116.439 495.238 115.565 495.279 114.345C495.32 113.125 495.421 111.722 495.584 110.136C495.747 108.55 496.011 106.923 496.377 105.256C496.743 103.548 497.231 101.921 497.841 100.376C498.451 98.8307 499.244 97.5293 500.22 96.472C501.033 95.5773 502.05 94.825 503.27 94.215C504.49 93.5643 505.913 93.0967 507.54 92.812C508.801 92.6087 510.122 92.4663 511.505 92.385C512.888 92.3037 513.965 92.2427 514.738 92.202C517.015 92.0393 518.662 91.6327 519.679 90.982C520.696 90.3313 521.529 89.3553 522.18 88.054ZM509.309 106.232C507.926 106.232 506.605 106.679 505.344 107.574C504.083 108.428 503.046 109.892 502.233 111.966C501.42 114.04 501.013 116.927 501.013 120.628C501.013 124.247 501.399 127.175 502.172 129.412C502.985 131.608 504.022 133.194 505.283 134.17C506.544 135.146 507.865 135.634 509.248 135.634C510.834 135.634 512.115 135.126 513.091 134.109C514.108 133.052 514.88 131.73 515.409 130.144C515.938 128.517 516.304 126.809 516.507 125.02C516.71 123.19 516.812 121.502 516.812 119.957C516.812 114.996 516.1 111.478 514.677 109.404C513.294 107.289 511.505 106.232 509.309 106.232ZM544.6 103.731C548.179 103.731 550.965 104.829 552.957 107.025C554.991 109.18 556.007 112.556 556.007 117.151H534.474L534.413 115.992H550.151C550.233 113.999 550.07 112.169 549.663 110.502C549.257 108.794 548.606 107.432 547.711 106.415C546.857 105.398 545.739 104.89 544.356 104.89C542.486 104.89 540.818 105.825 539.354 107.696C537.931 109.567 537.077 112.535 536.792 116.602L536.975 116.846C536.894 117.456 536.833 118.127 536.792 118.859C536.752 119.591 536.731 120.323 536.731 121.055C536.731 123.82 537.179 126.199 538.073 128.192C538.968 130.185 540.127 131.71 541.55 132.767C543.014 133.784 544.519 134.292 546.064 134.292C547.284 134.292 548.443 134.109 549.541 133.743C550.639 133.336 551.656 132.686 552.591 131.791C553.527 130.896 554.34 129.697 555.031 128.192L556.251 128.68C555.804 130.022 555.072 131.323 554.055 132.584C553.039 133.845 551.758 134.882 550.212 135.695C548.667 136.468 546.878 136.854 544.844 136.854C541.916 136.854 539.395 136.183 537.28 134.841C535.206 133.499 533.6 131.649 532.461 129.29C531.363 126.891 530.814 124.146 530.814 121.055C530.814 117.476 531.384 114.406 532.522 111.844C533.661 109.241 535.267 107.249 537.341 105.866C539.415 104.443 541.835 103.731 544.6 103.731ZM606.029 103.731C607.452 103.731 608.448 104.077 609.018 104.768C609.628 105.459 609.933 106.232 609.933 107.086C609.933 107.981 609.648 108.753 609.079 109.404C608.509 110.014 607.716 110.319 606.7 110.319C605.968 110.319 605.337 110.156 604.809 109.831C604.28 109.506 603.873 109.058 603.589 108.489C603.304 107.879 603.162 107.188 603.162 106.415C603.162 106.334 603.162 106.252 603.162 106.171C603.162 106.09 603.162 106.029 603.162 105.988C602.674 106.191 602.247 106.618 601.881 107.269C601.515 107.879 601.149 108.631 600.783 109.526C600.457 110.421 600.071 111.417 599.624 112.515C599.054 114.02 598.363 115.402 597.55 116.663C596.777 117.924 595.455 118.818 593.585 119.347L593.524 119.164C595.191 119.164 596.635 119.306 597.855 119.591C599.115 119.876 600.213 120.323 601.149 120.933C602.084 121.543 602.857 122.356 603.467 123.373C604.158 124.471 604.727 125.793 605.175 127.338C605.663 128.843 606.171 130.185 606.7 131.364C607.147 132.381 607.655 133.174 608.225 133.743C608.835 134.272 609.77 134.597 611.031 134.719V136C610.38 136.122 609.729 136.224 609.079 136.305C608.469 136.386 607.879 136.427 607.31 136.427C605.724 136.427 604.443 136.061 603.467 135.329C602.531 134.597 601.799 133.336 601.271 131.547C600.986 130.49 600.579 129.148 600.051 127.521C599.563 125.854 598.892 124.43 598.038 123.251C597.143 121.99 595.984 121.177 594.561 120.811C593.137 120.404 591.287 120.242 589.01 120.323V119.286C591.246 119.123 592.975 118.737 594.195 118.127C595.415 117.517 596.35 116.663 597.001 115.565C597.692 114.426 598.302 113.064 598.831 111.478C599.237 110.339 599.685 109.18 600.173 108.001C600.661 106.781 601.352 105.764 602.247 104.951C603.182 104.138 604.443 103.731 606.029 103.731ZM567.111 103.731C568.697 103.731 569.937 104.138 570.832 104.951C571.767 105.764 572.479 106.781 572.967 108.001C573.495 109.18 573.943 110.339 574.309 111.478C574.878 113.064 575.488 114.426 576.139 115.565C576.789 116.663 577.725 117.517 578.945 118.127C580.165 118.737 581.893 119.123 584.13 119.286V120.323C582.015 120.242 580.205 120.384 578.701 120.75C577.237 121.116 576.037 121.95 575.102 123.251C574.532 124.064 574.024 125.04 573.577 126.179C573.129 127.277 572.763 128.334 572.479 129.351C572.235 130.327 572.031 131.059 571.869 131.547C571.34 133.336 570.588 134.597 569.612 135.329C568.676 136.061 567.416 136.427 565.83 136.427C565.26 136.427 564.65 136.386 564 136.305C563.39 136.224 562.759 136.122 562.109 136V134.719C563.369 134.597 564.284 134.272 564.854 133.743C565.464 133.174 565.992 132.381 566.44 131.364C566.968 130.185 567.477 128.843 567.965 127.338C568.453 125.793 569.022 124.471 569.673 123.373C570.364 122.275 571.198 121.421 572.174 120.811C573.19 120.201 574.309 119.774 575.529 119.53C576.789 119.286 578.152 119.164 579.616 119.164L579.555 119.347C577.684 118.818 576.342 117.924 575.529 116.663C574.756 115.402 574.085 114.02 573.516 112.515C573.109 111.458 572.723 110.482 572.357 109.587C572.031 108.652 571.665 107.879 571.259 107.269C570.893 106.618 570.466 106.191 569.978 105.988C569.978 106.029 569.978 106.09 569.978 106.171C569.978 106.252 569.978 106.334 569.978 106.415C569.978 107.188 569.835 107.879 569.551 108.489C569.266 109.058 568.859 109.506 568.331 109.831C567.802 110.156 567.172 110.319 566.44 110.319C565.423 110.319 564.63 110.014 564.061 109.404C563.491 108.753 563.207 107.981 563.207 107.086C563.207 106.232 563.491 105.459 564.061 104.768C564.671 104.077 565.687 103.731 567.111 103.731ZM593.341 104.646V105.927C591.877 105.927 590.84 106.232 590.23 106.842C589.62 107.452 589.315 108.611 589.315 110.319V130.327C589.315 132.035 589.62 133.194 590.23 133.804C590.84 134.414 591.877 134.719 593.341 134.719V136C592.69 135.959 591.714 135.919 590.413 135.878C589.152 135.797 587.871 135.756 586.57 135.756C585.309 135.756 584.028 135.797 582.727 135.878C581.425 135.919 580.449 135.959 579.799 136V134.719C581.263 134.719 582.3 134.414 582.91 133.804C583.52 133.194 583.825 132.035 583.825 130.327V110.319C583.825 108.611 583.52 107.452 582.91 106.842C582.3 106.232 581.263 105.927 579.799 105.927V104.646C580.449 104.687 581.425 104.748 582.727 104.829C584.028 104.87 585.309 104.89 586.57 104.89C587.871 104.89 589.152 104.87 590.413 104.829C591.714 104.748 592.69 104.687 593.341 104.646ZM631.087 104.646V105.927C629.42 105.927 628.22 106.232 627.488 106.842C626.797 107.452 626.451 108.611 626.451 110.319V130.327C626.451 131.954 626.777 133.092 627.427 133.743C628.119 134.394 629.278 134.719 630.904 134.719C633.1 134.719 634.768 134.353 635.906 133.621C637.086 132.889 637.899 131.913 638.346 130.693C638.794 129.473 639.017 128.172 639.017 126.789C639.017 123.983 638.224 121.95 636.638 120.689C635.093 119.388 632.511 118.737 628.891 118.737C627.875 118.737 626.858 118.737 625.841 118.737C624.825 118.737 623.808 118.737 622.791 118.737L622.669 117.7C624.337 117.7 625.984 117.7 627.61 117.7C629.237 117.7 630.864 117.7 632.49 117.7C636.923 117.7 640.075 118.534 641.945 120.201C643.816 121.828 644.751 123.902 644.751 126.423C644.751 127.928 644.324 129.412 643.47 130.876C642.657 132.34 641.274 133.56 639.322 134.536C637.411 135.512 634.829 136 631.575 136C630.437 136 629.176 135.959 627.793 135.878C626.411 135.797 624.987 135.756 623.523 135.756C622.263 135.756 620.921 135.797 619.497 135.878C618.074 135.919 617.017 135.959 616.325 136V134.719C617.993 134.719 619.172 134.414 619.863 133.804C620.595 133.194 620.961 132.035 620.961 130.327V110.319C620.961 108.611 620.656 107.452 620.046 106.842C619.436 106.232 618.399 105.927 616.935 105.927V104.646C617.586 104.687 618.542 104.748 619.802 104.829C621.104 104.87 622.425 104.89 623.767 104.89C625.109 104.89 626.492 104.87 627.915 104.829C629.339 104.748 630.396 104.687 631.087 104.646ZM665.521 103.731C669.099 103.731 671.885 104.829 673.878 107.025C675.911 109.18 676.928 112.556 676.928 117.151H655.395L655.334 115.992H671.072C671.153 113.999 670.99 112.169 670.584 110.502C670.177 108.794 669.526 107.432 668.632 106.415C667.778 105.398 666.659 104.89 665.277 104.89C663.406 104.89 661.739 105.825 660.275 107.696C658.851 109.567 657.997 112.535 657.713 116.602L657.896 116.846C657.814 117.456 657.753 118.127 657.713 118.859C657.672 119.591 657.652 120.323 657.652 121.055C657.652 123.82 658.099 126.199 658.994 128.192C659.888 130.185 661.047 131.71 662.471 132.767C663.935 133.784 665.439 134.292 666.985 134.292C668.205 134.292 669.364 134.109 670.462 133.743C671.56 133.336 672.576 132.686 673.512 131.791C674.447 130.896 675.26 129.697 675.952 128.192L677.172 128.68C676.724 130.022 675.992 131.323 674.976 132.584C673.959 133.845 672.678 134.882 671.133 135.695C669.587 136.468 667.798 136.854 665.765 136.854C662.837 136.854 660.315 136.183 658.201 134.841C656.127 133.499 654.52 131.649 653.382 129.29C652.284 126.891 651.735 124.146 651.735 121.055C651.735 117.476 652.304 114.406 653.443 111.844C654.581 109.241 656.188 107.249 658.262 105.866C660.336 104.443 662.755 103.731 665.521 103.731Z" fill="#F4F4F4"/>
</svg>
